HIERARCHY
ROOT Hips
{
  OFFSET 56.6652 94.1604 22.4703
  CHANNELS 6 Xposition Yposition Zposition Zrotation Xrotation Yrotation
  JOINT spine
  {
    OFFSET 0 7.4756 0.429885
    CHANNELS 3 Zrotation Xrotation Yrotation
    JOINT spine1
    {
      OFFSET 0 9.92301 0
      CHANNELS 3 Zrotation Xrotation Yrotation
      JOINT spine2
      {
        OFFSET 0 9.50804 0
        CHANNELS 3 Zrotation Xrotation Yrotation
        JOINT Neck
        {
          OFFSET 0 24.4111 1.16384
          CHANNELS 3 Zrotation Xrotation Yrotation
          JOINT Head
          {
            OFFSET 0 7.37523 0
            CHANNELS 3 Zrotation Xrotation Yrotation
            End Site
            {
              OFFSET 0 17.8522 -5.88741
            }
          }
        }
        JOINT RightShoulder
        {
          OFFSET -4.00356 10.2679 -0.557468
          CHANNELS 3 Zrotation Xrotation Yrotation
          JOINT RightArm
          {
            OFFSET 0 13.4673 0
            CHANNELS 3 Zrotation Xrotation Yrotation
            JOINT RightArmRoll
            {
              OFFSET 0 6.79858 0
              CHANNELS 3 Zrotation Xrotation Yrotation
              JOINT RightForeArm
              {
                OFFSET 0 19.8018 0
                CHANNELS 3 Zrotation Xrotation Yrotation
                JOINT RightForeArmRoll
                {
                  OFFSET 0 7.62905 0
                  CHANNELS 3 Zrotation Xrotation Yrotation
                  JOINT RightHand
                  {
                    OFFSET 0 15.3098 0
                    CHANNELS 3 Zrotation Xrotation Yrotation
                    End Site
                    {
                      OFFSET 0 0 0
                    }
                  }
                }
              }
            }
          }
        }
        JOINT LeftShoulder
        {
          OFFSET 4.00356 10.2679 -0.557468
          CHANNELS 3 Zrotation Xrotation Yrotation
          JOINT LeftArm
          {
            OFFSET 0 13.4673 0
            CHANNELS 3 Zrotation Xrotation Yrotation
            JOINT LeftArmRoll
            {
              OFFSET 0 6.79858 0
              CHANNELS 3 Zrotation Xrotation Yrotation
              JOINT LeftForeArm
              {
                OFFSET 0 19.8018 0
                CHANNELS 3 Zrotation Xrotation Yrotation
                JOINT LeftForeArmRoll
                {
                  OFFSET 0 7.62905 0
                  CHANNELS 3 Zrotation Xrotation Yrotation
                  JOINT LeftHand
                  {
                    OFFSET 0 15.3098 0
                    CHANNELS 3 Zrotation Xrotation Yrotation
                    End Site
                    {
                      OFFSET 0 0 0
                    }
                  }
                }
              }
            }
          }
        }
      }
    }
  }
  JOINT RightUpLeg
  {
    OFFSET -6.62609 -1.21505 -1.01927
    CHANNELS 3 Zrotation Xrotation Yrotation
    JOINT RightUpLegRoll
    {
      OFFSET 0 17.9517 0
      CHANNELS 3 Zrotation Xrotation Yrotation
      JOINT RightLeg
      {
        OFFSET 0 -22.2304 0
        CHANNELS 3 Zrotation Xrotation Yrotation
        JOINT RightLegRoll
        {
          OFFSET 0 22.3032 0
          CHANNELS 3 Zrotation Xrotation Yrotation
          JOINT RightFoot
          {
            OFFSET 0 18.5636 0
            CHANNELS 3 Zrotation Xrotation Yrotation
            JOINT RightToeBase
            {
              OFFSET 0 15.5183 0
              CHANNELS 3 Zrotation Xrotation Yrotation
              End Site
              {
                OFFSET 0.00657761 7.51538 -0.866263
              }
            }
          }
        }
      }
    }
  }
  JOINT LeftUpLeg
  {
    OFFSET 6.62609 -1.21505 -1.01927
    CHANNELS 3 Zrotation Xrotation Yrotation
    JOINT LeftUpLegRoll
    {
      OFFSET 0 17.9518 0
      CHANNELS 3 Zrotation Xrotation Yrotation
      JOINT LeftLeg
      {
        OFFSET 0 22.2303 0
        CHANNELS 3 Zrotation Xrotation Yrotation
        JOINT LeftLegRoll
        {
          OFFSET 0 22.5093 0
          CHANNELS 3 Zrotation Xrotation Yrotation
          JOINT LeftFoot
          {
            OFFSET 0 18.3575 0
            CHANNELS 3 Zrotation Xrotation Yrotation
            JOINT LeftToeBase
            {
              OFFSET 0 15.5183 0
              CHANNELS 3 Zrotation Xrotation Yrotation
              End Site
              {
                OFFSET -0.029478 7.51539 -0.866263
              }
            }
          }
        }
      }
    }
  }
}
MOTION
Frames: 6
Frame Time: 0.00208333
54.018 74.0764 -0.719807 -4.66099 12.7138 4.84146 -0.325382 0.0787791 -0.454407 -0.647177 4.1628 -0.866486 -0.63776 5.80776 -0.856596 11.8822 -30.6503 0.315583 -1.68774 15.0936 -1.22251 84.7816 -1.59427 -3.43768 89.6025 36.6974 16.6209 7.38072e-006 3.10748e-006 -1.46948e-005 7.29139 3.23525 -1.19868 -3.88326e-006 4.86472e-006 -3.00497 8.02898 -4.95148 0.697714 -57.8735 -12.2632 7.67355 -122.08 34.9538 -3.98081 2.06084e-006 1.26027e-006 -1.39868e-006 0.0553073 -0.00198789 0.858476 -1.21278e-005 1.51397e-006 3.00853 -8.0294 -4.95141 -0.697647 -166.616 68.4976 -8.63035 180 3.05053e-005 178.373 -174.567 73.5438 171.779 -2.21856e-006 1.23206e-006 2.05079 -24.8533 72.4372 24.4019 8.77408 33.9887 -3.79957 -176.825 69.1956 -4.94308 4.5067e-006 -1.99009e-005 -1.32811 6.24301 -71.8149 7.85657 -3.02796e-006 7.7017e-007 -2.02169 30.2984 74.8838 -28.7447 -8.40826 29.1055 3.61275 
54.0243 74.2444 -0.611629 -4.64452 12.6933 4.82537 -0.330419 0.0558749 -0.454992 -0.657412 4.11703 -0.867373 -0.647993 5.76198 -0.857304 11.9046 -30.4669 0.313602 -1.74169 15.0798 -1.20271 84.8947 -1.57388 -3.44057 89.4624 36.5353 16.7071 7.38072e-006 3.10748e-006 -1.46948e-005 7.29817 3.27983 -1.20238 -3.88326e-006 4.86472e-006 -3.00492 8.02898 -4.95148 0.697714 -57.8348 -12.2751 7.68217 -122.071 34.8398 -4.01062 2.06084e-006 1.26027e-006 -1.39868e-006 0.0279179 -0.00235908 0.859043 -1.21278e-005 1.51397e-006 3.00853 -8.0294 -4.95141 -0.697647 -166.761 68.1944 -8.5592 180 3.05053e-005 178.377 -174.808 73.2865 172.014 -2.21856e-006 1.23206e-006 2.03727 -24.8487 72.4388 24.4032 8.77595 34.0093 -3.8005 -176.839 68.8785 -4.89485 4.5067e-006 -1.99009e-005 -1.32503 5.97538 -71.5526 7.61619 -3.02796e-006 7.7017e-007 -2.01056 30.3347 74.8982 -28.7753 -8.40865 29.1116 3.61295 
54.0419 74.4081 -0.475892 -4.62792 12.6724 4.80923 -0.335641 0.0329731 -0.455604 -0.668016 4.07126 -0.868354 -0.658595 5.71622 -0.858101 11.9305 -30.2818 0.312617 -1.79807 15.0646 -1.18212 85.011 -1.55234 -3.44336 89.3162 36.3754 16.7966 7.38072e-006 3.10748e-006 -1.46948e-005 7.30504 3.31985 -1.20572 -3.88326e-006 4.86472e-006 -3.00488 8.02898 -4.95148 0.697714 -57.7953 -12.2872 7.69092 -122.061 34.7259 -4.03974 2.06084e-006 1.26027e-006 -1.39868e-006 -0.000167279 -0.00212156 0.859647 -1.21278e-005 1.51397e-006 3.00853 -8.0294 -4.95141 -0.697647 -166.904 67.8903 -8.49143 180 3.05054e-005 178.382 -175.041 73.026 172.242 -2.21856e-006 1.23206e-006 2.02355 -24.8387 72.4371 24.3997 8.77795 34.0313 -3.80152 -176.849 68.5593 -4.85147 4.5067e-006 -1.99009e-005 -1.32191 5.7103 -71.2856 7.37905 -3.02796e-006 7.7017e-007 -1.99915 30.3692 74.9109 -28.8027 -8.40896 29.1166 3.61311 
54.0533 74.583 -0.354456 -4.61113 12.6513 4.79305 -0.341011 0.010116 -0.456216 -0.678918 4.02559 -0.869371 -0.669493 5.67054 -0.858928 11.9592 -30.0957 0.31243 -1.85615 15.0486 -1.16093 85.1293 -1.53004 -3.44608 89.1656 36.2172 16.8879 7.38072e-006 3.10748e-006 -1.46948e-005 7.31229 3.35616 -1.20872 -3.88326e-006 4.86472e-006 -3.00483 8.02898 -4.95148 0.697714 -57.7553 -12.2994 7.69982 -122.051 34.6122 -4.06812 2.06084e-006 1.26027e-006 -1.39868e-006 -0.0290236 -0.00138409 0.860279 -1.21278e-005 1.51397e-006 3.00853 -8.0294 -4.95141 -0.697647 -167.044 67.5852 -8.42629 180 3.05055e-005 178.386 -175.267 72.7621 172.463 -2.21856e-006 1.23206e-006 2.00965 -24.8247 72.4326 24.3924 8.78001 34.0539 -3.8026 -176.856 68.2383 -4.812 4.5067e-006 -1.99009e-005 -1.31875 5.44826 -71.0142 7.14558 -3.02796e-006 7.7017e-007 -1.9875 30.4019 74.9218 -28.827 -8.40922 29.121 3.61324 
54.056 74.7369 -0.23351 -4.5941 12.6298 4.77683 -0.346493 -0.0126541 -0.456799 -0.690044 3.98009 -0.870364 -0.680615 5.62504 -0.859728 11.9896 -29.9095 0.31285 -1.91522 15.0324 -1.13935 85.2481 -1.50736 -3.44874 89.0123 36.0604 16.9795 7.38072e-006 3.10748e-006 -1.46948e-005 7.32023 3.3896 -1.21145 -3.88326e-006 4.86472e-006 -3.00479 8.02898 -4.95148 0.697714 -57.7153 -12.3118 7.70887 -122.04 34.4985 -4.09569 2.06084e-006 1.26027e-006 -1.39868e-006 -0.0587264 -0.000255412 0.86093 -1.21278e-005 1.51397e-006 3.00853 -8.0294 -4.95141 -0.697647 -167.183 67.2788 -8.36308 180 3.05055e-005 178.39 -175.488 72.4947 172.679 -2.21856e-006 1.23206e-006 1.99559 -24.8082 72.4261 24.3823 8.78206 34.0762 -3.8037 -176.861 67.9156 -4.77583 4.5067e-006 -1.99009e-005 -1.31556 5.18968 -70.7387 6.91613 -3.02796e-006 7.7017e-007 -1.97562 30.4326 74.931 -28.848 -8.40943 29.1249 3.61335 
54.0628 74.907 -0.118538 -4.57676 12.6079 4.76059 -0.35205 -0.0352951 -0.457326 -0.70132 3.93485 -0.871274 -0.691888 5.57979 -0.860441 12.0209 -29.724 0.313685 -1.97456 15.0163 -1.11755 85.3665 -1.48466 -3.45135 88.858 35.9046 17.0698 7.38072e-006 3.10748e-006 -1.46948e-005 7.32917 3.42099 -1.21397 -3.88326e-006 4.86472e-006 -3.00474 8.02898 -4.95148 0.697714 -57.6755 -12.3245 7.71808 -122.03 34.3851 -4.12242 2.06084e-006 1.26027e-006 -1.39868e-006 -0.0893513 0.00115573 0.861592 -1.21278e-005 1.51397e-006 3.00853 -8.0294 -4.95141 -0.697647 -167.32 66.9709 -8.3011 180 3.05056e-005 178.394 -175.703 72.2235 172.89 -2.21856e-006 1.23206e-006 1.98138 -24.7905 72.4183 24.3705 8.78404 34.0974 -3.80478 -176.864 67.5913 -4.74209 4.5067e-006 -1.99009e-005 -1.31235 4.93496 -70.4598 6.69103 -3.02796e-006 7.7017e-007 -1.96356 30.461 74.9385 -28.8658 -8.40963 29.1285 3.61346 
